<svg width="32" height="32" viewBox="0 0 32 32" fill="none" xmlns="http://www.w3.org/2000/svg">
<mask id="mask0_24_9873" style="mask-type:luminance" maskUnits="userSpaceOnUse" x="0" y="0" width="32" height="32">
<path d="M32 0H0V32H32V0Z" fill="white"/>
</mask>
<g mask="url(#mask0_24_9873)">
<path d="M28.5947 19.3499C27.475 18.9705 23.5513 17.9618 20.8584 21.0711C20.2939 18.8317 18.2488 17.2863 15.9446 17.3603H15.9353C13.6311 17.2863 11.5767 18.8317 11.0123 21.0711C8.35639 18.0081 4.51602 18.9427 3.33152 19.3314H3.32227C3.37779 20.3401 3.72944 21.3117 4.31243 22.1353C7.74563 26.9103 12.5947 28.6593 15.8891 28.7056C15.8983 28.7056 15.9168 28.7056 15.9353 28.7056H15.9631C15.9909 28.7056 16.0094 28.7056 16.0371 28.7056C19.3315 28.6593 24.1806 26.9103 27.6138 22.1353C28.1968 21.3117 28.5392 20.3493 28.5947 19.3499Z" fill="white"/>
</g>
<mask id="mask1_24_9873" style="mask-type:luminance" maskUnits="userSpaceOnUse" x="0" y="0" width="32" height="32">
<path d="M32 0H0V32H32V0Z" fill="white"/>
</mask>
<g mask="url(#mask1_24_9873)">
<path d="M15.9907 0C24.8282 0 31.9907 7.16252 31.9907 16C31.9907 24.8375 24.8282 32 15.9907 32C7.15324 32 -0.00927734 24.8375 -0.00927734 16C-0.00927734 7.16252 7.1625 0 15.9907 0Z" fill="#CF1324"/>
</g>
<mask id="mask2_24_9873" style="mask-type:luminance" maskUnits="userSpaceOnUse" x="0" y="0" width="32" height="32">
<path d="M32 0H0V32H32V0Z" fill="white"/>
</mask>
<g mask="url(#mask2_24_9873)">
<path d="M6.59802 8.31925C7.43087 7.36609 8.43955 6.57951 9.55927 6.00577C7.45863 3.55349 5.76517 2.34122 5.02486 2.05435C4.37708 4.02543 5.12665 7.13475 5.82995 9.29091C6.07055 8.94851 6.32966 8.62463 6.59802 8.31925Z" fill="#EA5D0C"/>
</g>
<mask id="mask3_24_9873" style="mask-type:luminance" maskUnits="userSpaceOnUse" x="0" y="0" width="32" height="32">
<path d="M32 0H0V32H32V0Z" fill="white"/>
</mask>
<g mask="url(#mask3_24_9873)">
<path d="M25.3279 8.31925C25.5593 8.57836 25.7721 8.85597 25.9849 9.14284C26.6697 6.98668 27.373 3.97916 26.7438 2.05435C26.0127 2.34122 24.3377 3.53498 22.2556 5.95025C23.4216 6.52399 24.4673 7.32908 25.3279 8.31925Z" fill="#EA5D0C"/>
</g>
<mask id="mask4_24_9873" style="mask-type:luminance" maskUnits="userSpaceOnUse" x="0" y="0" width="32" height="32">
<path d="M32 0H0V32H32V0Z" fill="white"/>
</mask>
<g mask="url(#mask4_24_9873)">
<path d="M25.3278 8.31926C24.4672 7.33835 23.4215 6.53326 22.2555 5.95026C24.3377 3.53499 26.0126 2.33198 26.7437 2.05437C27.3729 3.97918 26.6696 6.99595 25.9849 9.14286C25.772 8.84673 25.5592 8.57837 25.3278 8.31926ZM6.59792 8.31926C6.32956 8.63389 6.07045 8.95778 5.8391 9.29092C5.1358 7.13476 4.38624 4.02545 5.03401 2.05437C5.77432 2.34124 7.46779 3.5535 9.56842 6.00578C8.43945 6.57953 7.43077 7.35685 6.59792 8.31926ZM28.5574 18.1284C28.1595 15.4725 27.558 13.159 26.6326 11.262C27.4007 9.43898 27.9282 7.52342 28.1965 5.5616C28.3816 3.99769 28.3168 2.39676 27.7153 1.07345C27.5765 0.777327 27.2526 0.620011 26.938 0.684789C26.4013 0.786582 25.4666 1.12898 24.1803 2.15616C22.8663 3.24812 21.6818 4.48814 20.6453 5.84847C19.1555 5.38577 17.6101 5.15442 16.0462 5.17293C16.0184 5.17293 15.9999 5.17293 15.9721 5.17293C15.9444 5.17293 15.9259 5.17293 15.8981 5.17293C14.2972 5.15442 12.7055 5.40428 11.1786 5.89474C10.1329 4.5159 8.92991 3.25737 7.59734 2.15616C6.31105 1.13823 5.38566 0.795835 4.84893 0.694042C4.52505 0.629264 4.21041 0.786581 4.0716 1.08271C3.4701 2.39676 3.40532 3.98843 3.58115 5.54309C3.85876 7.56969 4.414 9.55003 5.21909 11.4286C4.33997 13.2979 3.75697 15.5466 3.37756 18.1284C3.32204 18.5263 3.30353 18.9242 3.34055 19.3314C4.52505 18.9427 8.36542 18.0081 11.0213 21.0711C11.5858 18.8317 13.6309 17.2863 15.9444 17.3603C16.768 17.3418 17.5823 17.5269 18.3226 17.8785C19.5811 18.5448 20.4973 19.7016 20.8582 21.0711C23.5511 17.9526 27.4747 18.9705 28.5944 19.3499C28.6315 18.9427 28.613 18.5356 28.5574 18.1284Z" fill="#F28F3C"/>
</g>
<mask id="mask5_24_9873" style="mask-type:luminance" maskUnits="userSpaceOnUse" x="0" y="0" width="32" height="32">
<path d="M32 0H0V32H32V0Z" fill="white"/>
</mask>
<g mask="url(#mask5_24_9873)">
<path d="M19.4979 24.0139C19.3683 24.273 19.2943 24.5506 19.2943 24.8375C19.285 24.9208 19.211 24.9855 19.1185 24.9855H18.9334L18.517 26.096C18.5077 26.1238 18.4799 26.1515 18.4429 26.1515C18.4244 26.1515 18.4059 26.1423 18.3874 26.133C18.3041 26.0405 18.2301 25.9387 18.1653 25.8276C18.1468 25.8091 18.1468 25.7814 18.1468 25.7536V24.4858C17.425 24.5876 16.7032 24.6339 15.9814 24.6339H15.9351C15.2133 24.6339 14.4915 24.5784 13.779 24.4766V25.7443C13.779 25.7721 13.7697 25.7999 13.7604 25.8184C13.6957 25.9294 13.6216 26.0312 13.5384 26.1238C13.5106 26.1515 13.4551 26.1515 13.4273 26.1238C13.4181 26.1145 13.4088 26.1053 13.4088 26.096L12.9924 24.9855H12.8073C12.7148 24.9855 12.6407 24.9208 12.6315 24.8375C12.6222 24.5506 12.5482 24.273 12.4279 24.0139C12.4001 23.9583 12.4279 23.8936 12.4834 23.8751C12.4927 23.8658 12.5112 23.8658 12.5204 23.8658C12.8628 23.8566 13.6031 23.8473 13.7512 23.8566H15.056C15.1763 23.653 15.3706 23.5049 15.5927 23.4216V22.5518C14.0473 22.3574 13.853 20.9416 13.8807 20.1087C13.89 19.7663 14.1769 19.4887 14.5193 19.4887H17.4157C17.7581 19.4887 18.045 19.7663 18.0543 20.1087C18.082 20.9508 17.8877 22.3574 16.3423 22.5518V23.4216C16.5644 23.4956 16.7495 23.653 16.879 23.8566H18.1838C18.3319 23.8473 19.0722 23.8658 19.4146 23.8658C19.4701 23.8658 19.5164 23.9213 19.5164 23.9769C19.5071 23.9861 19.5071 24.0046 19.4979 24.0139Z" fill="#22263F"/>
</g>
<mask id="mask6_24_9873" style="mask-type:luminance" maskUnits="userSpaceOnUse" x="0" y="0" width="32" height="32">
<path d="M32 0H0V32H32V0Z" fill="white"/>
</mask>
<g mask="url(#mask6_24_9873)">
<path d="M19.4979 24.0139C19.3683 24.273 19.2943 24.5506 19.2943 24.8375C19.285 24.9207 19.211 24.9855 19.1185 24.9855H18.9334L18.517 26.096C18.5077 26.1238 18.4799 26.1515 18.4429 26.1515C18.4244 26.1515 18.4059 26.1423 18.3874 26.133C18.3041 26.0405 18.2301 25.9387 18.1653 25.8276C18.1468 25.8091 18.1468 25.7814 18.1468 25.7536V24.4858C17.425 24.5876 16.7032 24.6339 15.9721 24.6339H15.9259C15.2041 24.6339 14.4823 24.5784 13.7697 24.4858V25.7536C13.7697 25.7814 13.7604 25.8091 13.7512 25.8276C13.6864 25.9387 13.6124 26.0405 13.5291 26.133C13.5013 26.1608 13.4458 26.1608 13.4181 26.133C13.4088 26.1238 13.4088 26.1145 13.3995 26.1052L12.9831 24.9948H12.798C12.7055 24.9948 12.6315 24.93 12.6222 24.8467C12.613 24.5598 12.5389 24.2822 12.4186 24.0231C12.3909 23.9676 12.4186 23.9028 12.4742 23.8843C12.4834 23.8751 12.5019 23.8751 12.5112 23.8751C12.8536 23.8658 13.5939 23.8565 13.7419 23.8658H15.0467C15.167 23.6622 15.3614 23.5142 15.5835 23.4309V22.561C14.0381 22.3667 13.8437 20.9508 13.8715 20.118C13.8807 19.7756 14.1676 19.498 14.51 19.498H17.4065C17.7489 19.498 18.0358 19.7756 18.045 20.118C18.0728 20.9601 17.8784 22.3667 16.333 22.561V23.4309C16.5551 23.5049 16.7495 23.6622 16.8698 23.8658H18.1746C18.3226 23.8565 19.0629 23.8751 19.4053 23.8751C19.4609 23.8751 19.5071 23.9306 19.5071 23.9861C19.5071 23.9861 19.5071 24.0046 19.4979 24.0139ZM17.499 25.3464C17.499 25.5315 17.3787 25.6981 17.2029 25.7536C17.1751 25.7629 17.1381 25.7629 17.1104 25.7629C16.8883 25.7629 16.8605 25.4667 16.6199 25.4667C16.3793 25.4667 16.3145 26.1885 15.9629 26.2163H15.9536H15.9444C15.9351 26.2163 15.9351 26.2163 15.9259 26.2163C15.5927 26.17 15.5279 25.476 15.2966 25.476C15.056 25.476 15.0282 25.7721 14.8061 25.7721C14.7784 25.7721 14.7414 25.7721 14.7136 25.7629C14.5378 25.7073 14.4175 25.5408 14.4175 25.3557V25.1428H17.499V25.3464ZM28.5945 19.3499C27.4747 18.9705 23.5511 17.9618 20.8582 21.0711C20.4973 19.6923 19.5812 18.5356 18.3226 17.8785C17.5823 17.5269 16.768 17.3511 15.9444 17.3603C13.6401 17.2863 11.5858 18.8317 11.0213 21.0711C8.36542 18.0081 4.52505 18.9427 3.34055 19.3314C3.34055 19.3314 3.34055 19.3314 3.3313 19.3314C3.38682 20.3401 3.73847 21.3117 4.32146 22.1353C7.75466 26.9103 12.6037 28.6593 15.8981 28.7056H15.9444V28.6223V28.6963C15.9536 28.6963 15.9629 28.6963 15.9721 28.6963C15.9906 28.6963 16.0184 28.6963 16.0462 28.6963C17.0919 28.6686 18.1283 28.5113 19.1277 28.2244C22.5702 27.2157 25.5684 25.0688 27.6228 22.1261C28.1965 21.3117 28.5389 20.3493 28.5945 19.3499Z" fill="white"/>
</g>
<mask id="mask7_24_9873" style="mask-type:luminance" maskUnits="userSpaceOnUse" x="0" y="0" width="32" height="32">
<path d="M32 0H0V32H32V0Z" fill="white"/>
</mask>
<g mask="url(#mask7_24_9873)">
<path d="M17.499 25.1336V25.3464C17.499 25.5315 17.3787 25.6981 17.2029 25.7536C17.1751 25.7629 17.1381 25.7629 17.1104 25.7629C16.8883 25.7629 16.8605 25.4667 16.6199 25.4667C16.3793 25.4667 16.3145 26.1886 15.9629 26.2163H15.9536H15.9444C15.9351 26.2163 15.9351 26.2163 15.9259 26.2163C15.5927 26.17 15.5279 25.476 15.2966 25.476C15.056 25.476 15.0282 25.7721 14.8061 25.7721C14.7784 25.7721 14.7414 25.7721 14.7136 25.7629C14.5378 25.7073 14.4175 25.5408 14.4175 25.3557V25.1429H17.499V25.1336Z" fill="#22263F"/>
</g>
<mask id="mask8_24_9873" style="mask-type:luminance" maskUnits="userSpaceOnUse" x="0" y="0" width="32" height="32">
<path d="M32 0H0V32H32V0Z" fill="white"/>
</mask>
<g mask="url(#mask8_24_9873)">
<path d="M23.4678 14.7415L23.329 13.631C23.329 13.4459 23.181 13.2886 22.9866 13.2886C22.9496 13.2886 22.9033 13.2979 22.8663 13.3071C21.6633 13.7606 18.2856 15.306 18.665 16.3146C19.0074 17.0087 21.7836 16.2591 23.1624 15.3152C23.366 15.2042 23.4863 14.9728 23.4678 14.7415Z" fill="#22263F"/>
</g>
<mask id="mask9_24_9873" style="mask-type:luminance" maskUnits="userSpaceOnUse" x="0" y="0" width="32" height="32">
<path d="M32 0H0V32H32V0Z" fill="white"/>
</mask>
<g mask="url(#mask9_24_9873)">
<path d="M8.51367 14.7415L8.65248 13.631C8.65248 13.4459 8.80054 13.2886 8.99487 13.2886C9.03189 13.2886 9.07816 13.2979 9.11518 13.3071C10.3182 13.7606 13.6959 15.306 13.3164 16.3146C12.9741 17.0087 10.1979 16.2591 8.81905 15.3152C8.63397 15.1857 8.51367 14.9728 8.51367 14.7415Z" fill="#22263F"/>
</g>
<mask id="mask10_24_9873" style="mask-type:luminance" maskUnits="userSpaceOnUse" x="0" y="0" width="32" height="32">
<path d="M32 0H0V32H32V0Z" fill="white"/>
</mask>
<g mask="url(#mask10_24_9873)">
<path d="M13.0664 12.9555C12.3909 12.9 10.9751 12.7611 10.5309 12.4835C9.93862 12.1134 10.1885 10.4199 12.3076 10.6605C13.9271 10.8363 14.1214 11.9468 13.8253 12.5761C13.6679 12.8444 13.3718 12.9925 13.0664 12.9555Z" fill="white"/>
</g>
<mask id="mask11_24_9873" style="mask-type:luminance" maskUnits="userSpaceOnUse" x="0" y="0" width="32" height="32">
<path d="M32 0H0V32H32V0Z" fill="white"/>
</mask>
<g mask="url(#mask11_24_9873)">
<path d="M18.9242 12.9555C19.5997 12.9 21.0156 12.7611 21.4598 12.4835C22.052 12.1134 21.8022 10.4199 19.683 10.6605C18.0636 10.8363 17.8693 11.9468 18.1654 12.5761C18.3227 12.8444 18.6188 12.9925 18.9242 12.9555Z" fill="white"/>
</g>
</svg>
