<svg width="96" height="19" viewBox="0 0 96 19" fill="none" xmlns="http://www.w3.org/2000/svg">
<path d="M7.472 18.384C6.032 18.384 4.776 18.136 3.704 17.64C2.648 17.144 1.824 16.448 1.232 15.552C0.64 14.656 0.304 13.6 0.224 12.384L3.896 12.216C3.976 12.888 4.168 13.464 4.472 13.944C4.776 14.408 5.176 14.76 5.672 15C6.184 15.24 6.8 15.36 7.52 15.36C8.448 15.36 9.152 15.192 9.632 14.856C10.128 14.52 10.376 14.032 10.376 13.392C10.376 12.976 10.28 12.624 10.088 12.336C9.896 12.032 9.52 11.76 8.96 11.52C8.416 11.28 7.624 11.04 6.584 10.8C5.08 10.464 3.896 10.088 3.032 9.672C2.184 9.256 1.552 8.736 1.136 8.112C0.736 7.488 0.536 6.688 0.536 5.712C0.536 4.704 0.792 3.816 1.304 3.048C1.816 2.264 2.552 1.656 3.512 1.224C4.472 0.791999 5.608 0.576 6.92 0.576C8.296 0.576 9.472 0.823999 10.448 1.32C11.44 1.8 12.216 2.472 12.776 3.336C13.336 4.2 13.68 5.2 13.808 6.336L10.16 6.528C10.096 5.936 9.928 5.424 9.656 4.992C9.384 4.544 9.008 4.2 8.528 3.96C8.064 3.72 7.512 3.6 6.872 3.6C6.056 3.6 5.408 3.784 4.928 4.152C4.464 4.52 4.232 5 4.232 5.592C4.232 6.024 4.336 6.376 4.544 6.648C4.752 6.92 5.104 7.16 5.6 7.368C6.096 7.576 6.824 7.776 7.784 7.968C9.336 8.288 10.568 8.688 11.48 9.168C12.408 9.648 13.072 10.224 13.472 10.896C13.872 11.552 14.072 12.328 14.072 13.224C14.072 14.28 13.8 15.2 13.256 15.984C12.728 16.752 11.968 17.344 10.976 17.76C9.984 18.176 8.816 18.384 7.472 18.384ZM16.3574 0.959999H19.9574V8.136H19.4774C19.6374 7.064 20.0854 6.248 20.8214 5.688C21.5574 5.128 22.4534 4.848 23.5094 4.848C24.9014 4.848 25.9734 5.296 26.7254 6.192C27.4774 7.072 27.8534 8.248 27.8534 9.72V18H24.2534V10.584C24.2534 9.608 24.1014 8.888 23.7974 8.424C23.4934 7.944 22.9974 7.704 22.3094 7.704C21.5574 7.704 20.9734 7.96 20.5574 8.472C20.1574 8.984 19.9574 9.72 19.9574 10.68V18H16.3574V0.959999ZM31.0293 5.136H34.6293V18H31.0293V5.136ZM30.9573 0.671999H34.6773V3.552H30.9573V0.671999ZM44.6323 18.288C43.7363 18.288 42.9523 18.104 42.2803 17.736C41.6243 17.352 41.1123 16.808 40.7443 16.104L40.6723 18H37.2402V0.959999H40.8403V6.96C41.1923 6.336 41.6963 5.832 42.3523 5.448C43.0243 5.048 43.7843 4.848 44.6323 4.848C45.7043 4.848 46.6403 5.128 47.4403 5.688C48.2563 6.232 48.8803 7.016 49.3123 8.04C49.7603 9.048 49.9843 10.224 49.9843 11.568C49.9843 12.912 49.7603 14.096 49.3123 15.12C48.8803 16.128 48.2563 16.912 47.4403 17.472C46.6403 18.016 45.7043 18.288 44.6323 18.288ZM43.6243 15.528C44.4403 15.528 45.0883 15.176 45.5683 14.472C46.0483 13.768 46.2883 12.8 46.2883 11.568C46.2883 10.32 46.0483 9.352 45.5683 8.664C45.1043 7.96 44.4643 7.608 43.6483 7.608C43.0563 7.608 42.5443 7.768 42.1123 8.088C41.6963 8.392 41.3763 8.84 41.1523 9.432C40.9443 10.024 40.8403 10.736 40.8403 11.568C40.8403 12.384 40.9443 13.088 41.1523 13.68C41.3763 14.272 41.6963 14.728 42.1123 15.048C42.5443 15.368 43.0483 15.528 43.6243 15.528Z" fill="black"/>
<path d="M52.3854 0.959999H58.2654C61.0174 0.959999 63.1374 1.704 64.6254 3.192C66.1294 4.664 66.8814 6.768 66.8814 9.504C66.8814 12.224 66.1454 14.32 64.6734 15.792C63.2174 17.264 61.1294 18 58.4094 18H52.3854V0.959999ZM58.2654 14.928C59.8974 14.928 61.1134 14.488 61.9134 13.608C62.7134 12.712 63.1134 11.336 63.1134 9.48C63.1134 7.64 62.7134 6.272 61.9134 5.376C61.1134 4.48 59.8974 4.032 58.2654 4.032H56.0334V14.928H58.2654ZM75.2519 18.288C73.9559 18.288 72.8119 18.016 71.8199 17.472C70.8439 16.912 70.0919 16.128 69.5639 15.12C69.0359 14.096 68.7719 12.912 68.7719 11.568C68.7719 10.224 69.0359 9.048 69.5639 8.04C70.0919 7.016 70.8439 6.232 71.8199 5.688C72.7959 5.128 73.9319 4.848 75.2279 4.848C76.4919 4.848 77.5959 5.128 78.5399 5.688C79.4999 6.248 80.2359 7.056 80.7479 8.112C81.2599 9.152 81.5159 10.384 81.5159 11.808V12.528H72.4919C72.5239 13.52 72.7879 14.272 73.2839 14.784C73.7799 15.296 74.4599 15.552 75.3239 15.552C75.9319 15.552 76.4359 15.424 76.8359 15.168C77.2519 14.912 77.5479 14.52 77.7239 13.992L81.3479 14.208C80.9959 15.488 80.2759 16.488 79.1879 17.208C78.1159 17.928 76.8039 18.288 75.2519 18.288ZM77.8439 10.32C77.7959 9.408 77.5399 8.712 77.0759 8.232C76.6119 7.752 75.9959 7.512 75.2279 7.512C74.4599 7.512 73.8359 7.76 73.3559 8.256C72.8759 8.752 72.5879 9.44 72.4919 10.32H77.8439ZM82.2618 5.136H86.0298L89.0778 14.376L92.1258 5.136H95.8698L91.1658 18H86.9658L82.2618 5.136Z" fill="#4385F4"/>
</svg>